<?xml version="1.0" encoding="UTF-8"?>
<svg xmlns="http://www.w3.org/2000/svg" width="1040" height="600" viewBox="0 0 1040 600" role="img" aria-labelledby="title desc"><title id="title">Floating Clock States</title><desc id="desc">Editable vector UI concept for the Stopwatch Overlay pixel deck theme.</desc><rect x="0" y="0" width="1040" height="600" rx="0" fill="#112C3E" stroke="none" stroke-width="0" /><defs>
    <pattern id="seaGrid" width="16" height="16" patternUnits="userSpaceOnUse"><rect width="16" height="16" fill="#112C3E"/><rect x="0" y="0" width="8" height="8" fill="#1D3F55" opacity="0.14"/><rect x="8" y="8" width="8" height="8" fill="#0D5260" opacity="0.22"/></pattern>
    <pattern id="stripes" width="12" height="12" patternUnits="userSpaceOnUse" patternTransform="rotate(45)"><rect width="6" height="12" fill="#FFD46C" opacity="0.18"/></pattern>
    <linearGradient id="goldBar" x1="0" x2="1"><stop offset="0" stop-color="#F1BD3A"/><stop offset="1" stop-color="#FFD46C"/></linearGradient>
  </defs><rect x="0" y="0" width="1040" height="600" rx="0" fill="url(#seaGrid)" stroke="none" stroke-width="0" /><rect x="0" y="0" width="1040" height="72" rx="0" fill="#3C2419" stroke="none" stroke-width="0" /><rect x="0" y="72" width="1040" height="8" rx="0" fill="#D2AD69" stroke="none" stroke-width="0" /><rect x="0" y="80" width="1040" height="5" rx="0" fill="#A66B38" stroke="none" stroke-width="0" /><rect x="32" y="24" width="4" height="4" rx="0" fill="#FFD46C" stroke="none" stroke-width="0" /><rect x="36" y="24" width="4" height="4" rx="0" fill="#FFD46C" stroke="none" stroke-width="0" /><rect x="28" y="28" width="4" height="4" rx="0" fill="#FFD46C" stroke="none" stroke-width="0" /><rect x="40" y="28" width="4" height="4" rx="0" fill="#FFD46C" stroke="none" stroke-width="0" /><rect x="28" y="32" width="4" height="4" rx="0" fill="#FFD46C" stroke="none" stroke-width="0" /><rect x="36" y="32" width="4" height="4" rx="0" fill="#FFD46C" stroke="none" stroke-width="0" /><rect x="40" y="32" width="4" height="4" rx="0" fill="#FFD46C" stroke="none" stroke-width="0" /><rect x="28" y="36" width="4" height="4" rx="0" fill="#FFD46C" stroke="none" stroke-width="0" /><rect x="32" y="36" width="4" height="4" rx="0" fill="#FFD46C" stroke="none" stroke-width="0" /><rect x="36" y="36" width="4" height="4" rx="0" fill="#FFD46C" stroke="none" stroke-width="0" /><rect x="40" y="36" width="4" height="4" rx="0" fill="#FFD46C" stroke="none" stroke-width="0" /><text x="56" y="36" fill="#FFD46C" font-family="Cascadia Mono" font-size="23" font-weight="800" text-anchor="start" dominant-baseline="middle" >FLOATING CLOCK STATES</text><text x="1012" y="36" fill="#D2AD69" font-family="Inter" font-size="13" font-weight="550" text-anchor="end" dominant-baseline="middle" >COMPACT / HOVER / CLICK-THROUGH</text><text x="28" y="110" fill="#D2AD69" font-family="Inter" font-size="13" font-weight="700" text-anchor="start" dominant-baseline="middle" >ALWAYS-ON-TOP OVERLAY</text><text x="1012" y="110" fill="#D2AD69" font-family="Inter" font-size="12" font-weight="600" text-anchor="end" dominant-baseline="middle" >100% EDITABLE VECTOR</text><text x="54" y="160" fill="#FFD46C" font-family="Cascadia Mono" font-size="12" font-weight="700" text-anchor="start" dominant-baseline="middle" letter-spacing="1.4">P1  •  COMPACT / IDLE</text><polygon points="70,204 470,204 475,209 480,209 480,298 470,298 470,308 70,308 70,303 60,303 60,214 70,214" fill="#071014" stroke="#D7A24B" stroke-width="2" /><polygon points="73,210 467,210 470.5,213.5 474,213.5 474,295 467,295 467,302 73,302 73,298.5 66,298.5 66,217 73,217" fill="#232334" stroke="#796146" stroke-width="1" /><rect x="84" y="236" width="4" height="4" rx="0" fill="#EF6471" stroke="none" stroke-width="0" /><rect x="88" y="232" width="4" height="4" rx="0" fill="#EF6471" stroke="none" stroke-width="0" /><rect x="92" y="232" width="4" height="4" rx="0" fill="#EF6471" stroke="none" stroke-width="0" /><rect x="96" y="236" width="4" height="4" rx="0" fill="#EF6471" stroke="none" stroke-width="0" /><rect x="96" y="240" width="4" height="4" rx="0" fill="#EF6471" stroke="none" stroke-width="0" /><rect x="92" y="244" width="4" height="4" rx="0" fill="#EF6471" stroke="none" stroke-width="0" /><rect x="88" y="244" width="4" height="4" rx="0" fill="#EF6471" stroke="none" stroke-width="0" /><rect x="84" y="240" width="4" height="4" rx="0" fill="#EF6471" stroke="none" stroke-width="0" /><text x="112" y="242" fill="#EF6471" font-family="Cascadia Mono" font-size="11" font-weight="800" text-anchor="start" dominant-baseline="middle" >REC</text><text x="270" y="258" fill="#FFF8E8" font-family="Cascadia Mono" font-size="39" font-weight="800" text-anchor="middle" dominant-baseline="middle" >00:14:27.6</text><text x="270" y="289" fill="#C7C3C3" font-family="Inter" font-size="10" font-weight="650" text-anchor="middle" dominant-baseline="middle" >DEEP WORK SPRINT</text><rect x="444" y="218" width="12" height="12" rx="2" fill="#70D6A2" stroke="#FFD46C" stroke-width="1" /><text x="554" y="160" fill="#FFD46C" font-family="Cascadia Mono" font-size="12" font-weight="700" text-anchor="start" dominant-baseline="middle" letter-spacing="1.4">P2  •  CLICK-THROUGH / MINIMAL</text><polygon points="570,204 970,204 975,209 980,209 980,298 970,298 970,308 570,308 570,303 560,303 560,214 570,214" fill="#071014E6" stroke="#37AEB0" stroke-width="2" /><text x="770" y="250" fill="#FFF8E8" font-family="Cascadia Mono" font-size="43" font-weight="800" text-anchor="middle" dominant-baseline="middle" >00:14:27.6</text><rect x="584" y="238" width="12" height="12" rx="2" fill="#EF6471" stroke="#FFD46C" stroke-width="1" /><text x="584" y="275" fill="#37AEB0" font-family="Cascadia Mono" font-size="12" font-weight="700" text-anchor="start" dominant-baseline="middle" letter-spacing="1.4">LOCKED</text><text x="956" y="275" fill="#C7C3C3" font-family="Cascadia Mono" font-size="12" font-weight="700" text-anchor="start" dominant-baseline="middle" letter-spacing="1.4">75%</text><text x="54" y="350" fill="#FFD46C" font-family="Cascadia Mono" font-size="12" font-weight="700" text-anchor="start" dominant-baseline="middle" letter-spacing="1.4">P3  •  HOVER TOOLBAR / ACTIVE</text><polygon points="70,394 970,394 975,399 980,399 980,540 970,540 970,550 70,550 70,545 60,545 60,404 70,404" fill="#071014" stroke="#D7A24B" stroke-width="2" /><polygon points="73,400 967,400 970.5,403.5 974,403.5 974,537 967,537 967,544 73,544 73,540.5 66,540.5 66,407 73,407" fill="#232334" stroke="#796146" stroke-width="1" /><rect x="66" y="400" width="908" height="36" rx="0" fill="#3C2419" stroke="none" stroke-width="0" /><rect x="88" y="410" width="4" height="4" rx="0" fill="#FFD46C" stroke="none" stroke-width="0" /><rect x="92" y="410" width="4" height="4" rx="0" fill="#FFD46C" stroke="none" stroke-width="0" /><rect x="84" y="414" width="4" height="4" rx="0" fill="#FFD46C" stroke="none" stroke-width="0" /><rect x="96" y="414" width="4" height="4" rx="0" fill="#FFD46C" stroke="none" stroke-width="0" /><rect x="84" y="418" width="4" height="4" rx="0" fill="#FFD46C" stroke="none" stroke-width="0" /><rect x="92" y="418" width="4" height="4" rx="0" fill="#FFD46C" stroke="none" stroke-width="0" /><rect x="96" y="418" width="4" height="4" rx="0" fill="#FFD46C" stroke="none" stroke-width="0" /><rect x="84" y="422" width="4" height="4" rx="0" fill="#FFD46C" stroke="none" stroke-width="0" /><rect x="88" y="422" width="4" height="4" rx="0" fill="#FFD46C" stroke="none" stroke-width="0" /><rect x="92" y="422" width="4" height="4" rx="0" fill="#FFD46C" stroke="none" stroke-width="0" /><rect x="96" y="422" width="4" height="4" rx="0" fill="#FFD46C" stroke="none" stroke-width="0" /><text x="112" y="418" fill="#FFD46C" font-family="Cascadia Mono" font-size="13" font-weight="800" text-anchor="start" dominant-baseline="middle" >CHRONODECK</text><rect x="222" y="406" width="78" height="24" rx="2" fill="#191A28" stroke="#70D6A2" stroke-width="1" /><text x="261" y="418" fill="#70D6A2" font-family="Cascadia Mono" font-size="11" font-weight="750" text-anchor="middle" dominant-baseline="middle" >RUNNING</text><text x="950" y="418" fill="#D2AD69" font-family="Inter" font-size="11" font-weight="600" text-anchor="end" dominant-baseline="middle" >DISPLAY 1</text><rect x="82" y="452" width="522" height="74" rx="3" fill="#191A28" stroke="#796146" stroke-width="1" /><text x="343" y="486" fill="#FFF8E8" font-family="Cascadia Mono" font-size="45" font-weight="800" text-anchor="middle" dominant-baseline="middle" >00:14:27.6</text><rect x="627" y="459" width="96" height="60" rx="4" fill="#3C2419" stroke="none" stroke-width="0" /><rect x="624" y="455" width="96" height="60" rx="4" fill="#2C2B3E" stroke="#D7A24B" stroke-width="2" /><rect x="638" y="475" width="4" height="4" rx="0" fill="#FFF8E8" stroke="none" stroke-width="0" /><rect x="646" y="475" width="4" height="4" rx="0" fill="#FFF8E8" stroke="none" stroke-width="0" /><rect x="638" y="479" width="4" height="4" rx="0" fill="#FFF8E8" stroke="none" stroke-width="0" /><rect x="646" y="479" width="4" height="4" rx="0" fill="#FFF8E8" stroke="none" stroke-width="0" /><rect x="638" y="483" width="4" height="4" rx="0" fill="#FFF8E8" stroke="none" stroke-width="0" /><rect x="646" y="483" width="4" height="4" rx="0" fill="#FFF8E8" stroke="none" stroke-width="0" /><rect x="638" y="487" width="4" height="4" rx="0" fill="#FFF8E8" stroke="none" stroke-width="0" /><rect x="646" y="487" width="4" height="4" rx="0" fill="#FFF8E8" stroke="none" stroke-width="0" /><text x="666" y="486" fill="#FFF8E8" font-family="Cascadia Mono" font-size="14" font-weight="800" text-anchor="start" dominant-baseline="middle" >PAUSE</text><rect x="735" y="459" width="96" height="60" rx="4" fill="#3C2419" stroke="none" stroke-width="0" /><rect x="732" y="455" width="96" height="60" rx="4" fill="#2C2B3E" stroke="#D7A24B" stroke-width="2" /><rect x="750" y="475" width="4" height="4" rx="0" fill="#FFF8E8" stroke="none" stroke-width="0" /><rect x="754" y="475" width="4" height="4" rx="0" fill="#FFF8E8" stroke="none" stroke-width="0" /><rect x="746" y="479" width="4" height="4" rx="0" fill="#FFF8E8" stroke="none" stroke-width="0" /><rect x="746" y="483" width="4" height="4" rx="0" fill="#FFF8E8" stroke="none" stroke-width="0" /><rect x="750" y="483" width="4" height="4" rx="0" fill="#FFF8E8" stroke="none" stroke-width="0" /><rect x="754" y="483" width="4" height="4" rx="0" fill="#FFF8E8" stroke="none" stroke-width="0" /><rect x="754" y="487" width="4" height="4" rx="0" fill="#FFF8E8" stroke="none" stroke-width="0" /><rect x="750" y="491" width="4" height="4" rx="0" fill="#FFF8E8" stroke="none" stroke-width="0" /><rect x="754" y="491" width="4" height="4" rx="0" fill="#FFF8E8" stroke="none" stroke-width="0" /><text x="774" y="486" fill="#FFF8E8" font-family="Cascadia Mono" font-size="14" font-weight="800" text-anchor="start" dominant-baseline="middle" >RESET</text><rect x="843" y="459" width="112" height="60" rx="4" fill="#3C2419" stroke="none" stroke-width="0" /><rect x="840" y="455" width="112" height="60" rx="4" fill="#FF8291" stroke="#FF8291" stroke-width="2" /><rect x="854" y="475" width="4" height="4" rx="0" fill="#071014" stroke="none" stroke-width="0" /><rect x="866" y="475" width="4" height="4" rx="0" fill="#071014" stroke="none" stroke-width="0" /><rect x="858" y="479" width="4" height="4" rx="0" fill="#071014" stroke="none" stroke-width="0" /><rect x="862" y="479" width="4" height="4" rx="0" fill="#071014" stroke="none" stroke-width="0" /><rect x="858" y="483" width="4" height="4" rx="0" fill="#071014" stroke="none" stroke-width="0" /><rect x="862" y="483" width="4" height="4" rx="0" fill="#071014" stroke="none" stroke-width="0" /><rect x="854" y="487" width="4" height="4" rx="0" fill="#071014" stroke="none" stroke-width="0" /><rect x="866" y="487" width="4" height="4" rx="0" fill="#071014" stroke="none" stroke-width="0" /><text x="882" y="486" fill="#071014" font-family="Cascadia Mono" font-size="14" font-weight="800" text-anchor="start" dominant-baseline="middle" >CLOSE</text></svg>
